<svg width="24" height="24" viewBox="0 0 24 24" fill="none">
<path d="M8.03077 9.23449L11.227 3.99624C11.3205 3.84241 11.4343 3.73274 11.5683 3.66724C11.7023 3.60191 11.8462 3.56924 12 3.56924C12.1538 3.56924 12.2978 3.60191 12.4318 3.66724C12.5658 3.73274 12.6795 3.84241 12.773 3.99624L15.9693 9.23449C16.0628 9.38516 16.1095 9.54333 16.1095 9.70899C16.1095 9.87483 16.0711 10.0263 15.9943 10.1635C15.9173 10.3007 15.8115 10.4102 15.677 10.4922C15.5423 10.5742 15.3853 10.6152 15.2058 10.6152H8.79427C8.61477 10.6152 8.45768 10.5742 8.32302 10.4922C8.18852 10.4102 8.08277 10.3014 8.00577 10.1657C7.92893 10.0302 7.89052 9.87966 7.89052 9.71399C7.89052 9.54816 7.93727 9.38833 8.03077 9.23449ZM17.5023 21.6152C16.3598 21.6152 15.3878 21.2154 14.5865 20.4157C13.7853 19.6159 13.3848 18.6447 13.3848 17.5022C13.3848 16.3597 13.7846 15.3878 14.5843 14.5865C15.3841 13.7853 16.3553 13.3847 17.4978 13.3847C18.6403 13.3847 19.6122 13.7846 20.4135 14.5842C21.2147 15.3841 21.6153 16.3552 21.6153 17.4977C21.6153 18.6402 21.2154 19.6122 20.4158 20.4135C19.6159 21.2147 18.6448 21.6152 17.5023 21.6152ZM3.38477 20.2112V14.7862C3.38477 14.5301 3.47135 14.3157 3.64452 14.1432C3.81785 13.9709 4.0326 13.8847 4.28877 13.8847H9.71377C9.96993 13.8847 10.1843 13.9713 10.3568 14.1445C10.5291 14.3178 10.6153 14.5326 10.6153 14.7887V20.2137C10.6153 20.4699 10.5287 20.6842 10.3555 20.8567C10.1822 21.0291 9.96743 21.1152 9.71127 21.1152H4.28627C4.0301 21.1152 3.81577 21.0287 3.64327 20.8555C3.47093 20.6822 3.38477 20.4674 3.38477 20.2112Z" fill="currentColor"/>
</svg>
