<svg width="24" height="24" viewBox="0 0 24 24" fill="none" xmlns="http://www.w3.org/2000/svg">
<mask id="mask0_111_506" style="mask-type:alpha" maskUnits="userSpaceOnUse" x="0" y="0" width="24" height="24">
<rect width="24" height="24" fill="#D9D9D9"/>
</mask>
<g mask="url(#mask0_111_506)">
<path d="M15.2912 22.84L12.6798 20.2392L11.1859 21.7346C11.0764 21.8443 10.9343 21.8991 10.7598 21.8991C10.5853 21.8991 10.4431 21.8443 10.3335 21.7346C10.0325 21.4332 9.88206 21.0603 9.88206 20.6158C9.88206 20.1711 10.0325 19.7981 10.3335 19.4969L13.9621 15.8646C14.263 15.5634 14.6356 15.4128 15.0798 15.4128C15.5239 15.4128 15.8964 15.5634 16.1975 15.8646C16.3071 15.9744 16.3618 16.1167 16.3618 16.2914C16.3618 16.4661 16.3071 16.6083 16.1975 16.7179L14.7036 18.2133L17.3018 20.8274C17.4596 20.9852 17.5385 21.1695 17.5385 21.3802C17.5385 21.5907 17.4596 21.7749 17.3018 21.9327L16.3954 22.84C16.2378 22.9979 16.0538 23.0769 15.8434 23.0769C15.633 23.0769 15.4489 22.9979 15.2912 22.84ZM17.285 9.57116L7.75043 19.1239L8.1281 19.4884C8.42904 19.7896 8.57952 20.1626 8.57952 20.6072C8.57952 21.0519 8.42904 21.4249 8.1281 21.7261C8.01843 21.8359 7.87632 21.8908 7.70177 21.8908C7.52723 21.8908 7.38519 21.8359 7.27566 21.7261L5.78178 20.2309L3.17036 22.8317C3.01269 22.9895 2.82862 23.0684 2.61815 23.0684C2.40782 23.0684 2.22382 22.9895 2.06615 22.8317L1.15982 21.9244C1.002 21.7664 0.923096 21.5822 0.923096 21.3716C0.923096 21.1611 1.002 20.9768 1.15982 20.8189L3.75793 18.2048L2.26404 16.7096C2.15451 16.5999 2.09975 16.4576 2.09975 16.2829C2.09975 16.1082 2.15451 15.9659 2.26404 15.8561C2.56513 15.5549 2.93771 15.4042 3.38178 15.4042C3.826 15.4042 4.19858 15.5549 4.49952 15.8561L4.87218 16.2427L14.192 6.92194C14.3351 6.77852 14.5038 6.66597 14.698 6.58429C14.892 6.50246 15.0943 6.46155 15.3047 6.46155H16.7327C16.9578 6.46155 17.1455 6.5369 17.2959 6.68759C17.4464 6.83815 17.5217 7.02604 17.5217 7.25129V9.00506C17.5217 9.11033 17.5026 9.21058 17.4645 9.3058C17.4266 9.40102 17.3667 9.48948 17.285 9.57116ZM4.65247 13.059L1.39131 9.79458C1.24819 9.65131 1.13713 9.48249 1.05815 9.28811C0.979314 9.09388 0.939896 8.89142 0.939896 8.68073V7.25129C0.939896 7.02604 1.01517 6.83815 1.16571 6.68759C1.31611 6.5369 1.50382 6.46155 1.72884 6.46155H3.15684C3.36731 6.46155 3.56956 6.50246 3.7636 6.58429C3.95778 6.66597 4.12643 6.77852 4.26956 6.92194L7.53574 10.1997C7.66548 10.3296 7.7281 10.4802 7.72359 10.6516C7.71908 10.823 7.65195 10.9736 7.52221 11.1035C7.39246 11.2245 7.24061 11.2871 7.06665 11.2915C6.89268 11.296 6.74076 11.2333 6.61087 11.1035L3.27444 7.77196H2.24898V8.79845L5.58541 12.1383C5.70629 12.2593 5.7681 12.4091 5.77087 12.5877C5.77378 12.7664 5.71196 12.9235 5.58541 13.059C5.45014 13.1945 5.29465 13.2622 5.11894 13.2622C4.94323 13.2622 4.78774 13.1945 4.65247 13.059ZM6.83079 18.1897L16.2126 8.79845V7.77196H15.1871L5.80534 17.1633L6.83079 18.1897Z" fill="currentColor"/>
<path d="M17.3077 5.07691H19.3846V7.15383C19.3846 7.34999 19.4509 7.51437 19.5835 7.64699C19.716 7.77976 19.8804 7.84614 20.0767 7.84614C20.2728 7.84614 20.4373 7.77976 20.57 7.64699C20.7028 7.51437 20.7692 7.34999 20.7692 7.15383V5.07691H22.8461C23.0423 5.07691 23.2067 5.0106 23.3395 4.87799C23.4721 4.74553 23.5384 4.58114 23.5384 4.38483C23.5384 4.18868 23.4721 4.02422 23.3395 3.89145C23.2067 3.75868 23.0423 3.6923 22.8461 3.6923H20.7692V1.61537C20.7692 1.41922 20.7029 1.25483 20.5703 1.12222C20.4378 0.98945 20.2734 0.923065 20.0771 0.923065C19.881 0.923065 19.7165 0.98945 19.5837 1.12222C19.451 1.25483 19.3846 1.41922 19.3846 1.61537V3.6923H17.3077C17.1115 3.6923 16.9471 3.7586 16.8145 3.89122C16.6817 4.02368 16.6154 4.18807 16.6154 4.38437C16.6154 4.58053 16.6817 4.74499 16.8145 4.87776C16.9471 5.01053 17.1115 5.07691 17.3077 5.07691Z" fill="currentColor"/>
</g>
</svg>
