<svg width="40" height="40" viewBox="0 0 40 40" fill="none" xmlns="http://www.w3.org/2000/svg">
<mask id="mask0_2_277" style="mask-type:alpha" maskUnits="userSpaceOnUse" x="0" y="0" width="40" height="40">
<rect width="40" height="40" fill="#D9D9D9"/>
</mask>
<g mask="url(#mask0_2_277)">
<path d="M18.3333 21.6667H9.99999C9.52777 21.6667 9.13194 21.507 8.81249 21.1875C8.49305 20.8681 8.33333 20.4722 8.33333 20C8.33333 19.5278 8.49305 19.132 8.81249 18.8125C9.13194 18.4931 9.52777 18.3333 9.99999 18.3333H18.3333V10C18.3333 9.52779 18.4931 9.13195 18.8125 8.81251C19.1319 8.49307 19.5278 8.33334 20 8.33334C20.4722 8.33334 20.8681 8.49307 21.1875 8.81251C21.5069 9.13195 21.6667 9.52779 21.6667 10V18.3333H30C30.4722 18.3333 30.8681 18.4931 31.1875 18.8125C31.5069 19.132 31.6667 19.5278 31.6667 20C31.6667 20.4722 31.5069 20.8681 31.1875 21.1875C30.8681 21.507 30.4722 21.6667 30 21.6667H21.6667V30C21.6667 30.4722 21.5069 30.8681 21.1875 31.1875C20.8681 31.507 20.4722 31.6667 20 31.6667C19.5278 31.6667 19.1319 31.507 18.8125 31.1875C18.4931 30.8681 18.3333 30.4722 18.3333 30V21.6667Z" fill="currentColor"/>
</g>
</svg>
