<svg width="20" height="20" viewBox="0 0 20 20" fill="none" xmlns="http://www.w3.org/2000/svg">
<mask id="mask0_2_708" style="mask-type:alpha" maskUnits="userSpaceOnUse" x="0" y="0" width="20" height="20">
<rect width="20" height="20" fill="#D9D9D9"/>
</mask>
<g mask="url(#mask0_2_708)">
<path d="M7.36185 10.0557L14.1991 16.8929C14.3794 17.0732 14.4673 17.2856 14.4627 17.5299C14.458 17.7743 14.3655 17.9867 14.1852 18.1671C14.0047 18.3474 13.7923 18.4375 13.548 18.4375C13.3037 18.4375 13.0913 18.3474 12.9109 18.1671L5.94816 11.2182C5.78402 11.0541 5.66239 10.8702 5.58328 10.6666C5.50416 10.4629 5.4646 10.2593 5.4646 10.0557C5.4646 9.85209 5.50416 9.64847 5.58328 9.44485C5.66239 9.24123 5.78402 9.05736 5.94816 8.89322L12.9109 1.9303C13.0913 1.74998 13.3061 1.66216 13.5551 1.66685C13.8041 1.67154 14.0187 1.76405 14.1991 1.94437C14.3794 2.12469 14.4695 2.33708 14.4695 2.58155C14.4695 2.82586 14.3794 3.03818 14.1991 3.2185L7.36185 10.0557Z" fill="currentColor"/>
</g>
</svg>
