<svg width="20" height="20" viewBox="0 0 20 20" fill="none" xmlns="http://www.w3.org/2000/svg">
<rect width="20" height="20" rx="10" fill="#EC5858"/>
<mask id="mask0_118_451" style="mask-type:alpha" maskUnits="userSpaceOnUse" x="1" y="0" width="18" height="18">
<rect x="1" width="18" height="18" fill="#D9D9D9"/>
</mask>
<g mask="url(#mask0_118_451)">
<path d="M6.01056 14.4894C4.92019 13.3991 4.375 12.0693 4.375 10.5C4.375 9.23175 4.74087 7.99931 5.47262 6.80269C6.20437 5.60606 7.20775 4.55388 8.48275 3.64613C8.724 3.46825 8.97712 3.4505 9.24212 3.59288C9.507 3.73513 9.63944 3.95338 9.63944 4.24763V4.88363C9.63944 5.34225 9.82594 5.743 10.1989 6.08588C10.5721 6.42863 11.012 6.6 11.5188 6.6C11.7409 6.6 11.956 6.55675 12.1641 6.47025C12.3724 6.38375 12.5635 6.26019 12.7375 6.09956C12.8375 5.99856 12.956 5.93969 13.093 5.92294C13.23 5.90606 13.3576 5.94281 13.4759 6.03319C14.148 6.56206 14.6743 7.2195 15.0546 8.0055C15.4349 8.79163 15.625 9.62313 15.625 10.5C15.625 12.0693 15.0798 13.3991 13.9894 14.4894C12.8991 15.5798 11.5693 16.125 10 16.125C8.43075 16.125 7.10094 15.5798 6.01056 14.4894ZM5.5 10.5C5.5 11.2558 5.68056 11.9591 6.04169 12.6101C6.40269 13.2611 6.89906 13.7861 7.53081 14.1851C7.47506 14.0794 7.43513 13.9738 7.411 13.8684C7.387 13.7632 7.375 13.6529 7.375 13.5375C7.375 13.1904 7.44162 12.8634 7.57487 12.5567C7.708 12.2499 7.89906 11.9721 8.14806 11.7231L10 9.9015L11.8591 11.7231C12.1082 11.9721 12.2981 12.2499 12.4289 12.5567C12.5596 12.8634 12.625 13.1904 12.625 13.5375C12.625 13.6529 12.613 13.7632 12.589 13.8684C12.5649 13.9738 12.5249 14.0794 12.4692 14.1851C13.1009 13.7861 13.5973 13.2611 13.9583 12.6101C14.3194 11.9591 14.5 11.2558 14.5 10.5C14.5 9.875 14.3844 9.28438 14.1531 8.72813C13.9219 8.17188 13.5875 7.675 13.15 7.2375C12.9 7.4 12.6375 7.52188 12.3625 7.60313C12.0875 7.68438 11.8063 7.725 11.5188 7.725C10.739 7.725 10.0648 7.46875 9.496 6.95625C8.92725 6.44375 8.6015 5.80769 8.51875 5.04806C7.54375 5.86831 6.79688 6.74763 6.27813 7.686C5.75938 8.6245 5.5 9.5625 5.5 10.5ZM10 11.475L8.93125 12.525C8.79375 12.6625 8.6875 12.8188 8.6125 12.9938C8.5375 13.1688 8.5 13.35 8.5 13.5375C8.5 13.9375 8.64688 14.2813 8.94063 14.5688C9.23438 14.8563 9.5875 15 10 15C10.4125 15 10.7656 14.8563 11.0594 14.5688C11.3531 14.2813 11.5 13.9375 11.5 13.5375C11.5 13.3375 11.4625 13.1531 11.3875 12.9844C11.3125 12.8156 11.2063 12.6625 11.0688 12.525L10 11.475Z" fill="#FDFDFD"/>
</g>
</svg>
