<svg width="20" height="20" viewBox="0 0 20 20" fill="none" xmlns="http://www.w3.org/2000/svg">
<rect width="20" height="20" rx="10" fill="#48BE30"/>
<mask id="mask0_118_450" style="mask-type:alpha" maskUnits="userSpaceOnUse" x="3" y="3" width="14" height="14">
<rect x="3" y="3" width="14" height="14" fill="#D9D9D9"/>
</mask>
<g mask="url(#mask0_118_450)">
<path d="M14.0507 15.3363L12.3053 13.5998L11.3067 14.5983C11.2335 14.6715 11.1386 14.7081 11.0219 14.7081C10.9053 14.7081 10.8103 14.6715 10.737 14.5983C10.5358 14.397 10.4352 14.148 10.4352 13.8512C10.4352 13.5543 10.5358 13.3052 10.737 13.1041L13.1623 10.6787C13.3635 10.4776 13.6125 10.377 13.9094 10.377C14.2062 10.377 14.4553 10.4776 14.6565 10.6787C14.7297 10.752 14.7663 10.847 14.7663 10.9637C14.7663 11.0803 14.7297 11.1753 14.6565 11.2485L13.658 12.247L15.3946 13.9925C15.5001 14.0979 15.5528 14.2209 15.5528 14.3616C15.5528 14.5022 15.5001 14.6252 15.3946 14.7305L14.7888 15.3363C14.6834 15.4418 14.5604 15.4946 14.4198 15.4946C14.2792 15.4946 14.1561 15.4418 14.0507 15.3363ZM15.3834 6.47638L9.01044 12.855L9.26288 13.0984C9.46403 13.2995 9.5646 13.5486 9.5646 13.8455C9.5646 14.1424 9.46403 14.3914 9.26288 14.5926C9.18957 14.6659 9.09458 14.7025 8.97792 14.7025C8.86125 14.7025 8.76631 14.6659 8.6931 14.5926L7.69458 13.5942L5.9491 15.3308C5.84372 15.4362 5.72068 15.4889 5.58 15.4889C5.43942 15.4889 5.31643 15.4362 5.21104 15.3308L4.60525 14.725C4.49976 14.6195 4.44702 14.4965 4.44702 14.3559C4.44702 14.2153 4.49976 14.0923 4.60525 13.9868L6.34183 12.2413L5.34331 11.2429C5.2701 11.1696 5.2335 11.0746 5.2335 10.958C5.2335 10.8413 5.2701 10.7463 5.34331 10.673C5.54456 10.4719 5.7936 10.3713 6.09042 10.3713C6.38733 10.3713 6.63637 10.4719 6.83752 10.673L7.0866 10.9311L13.316 4.70742C13.4117 4.61165 13.5244 4.5365 13.6542 4.48196C13.7839 4.42732 13.9191 4.4 14.0598 4.4H15.0143C15.1647 4.4 15.2901 4.45031 15.3906 4.55094C15.4913 4.65147 15.5416 4.77693 15.5416 4.92733V6.09838C15.5416 6.16867 15.5288 6.23561 15.5034 6.29919C15.478 6.36277 15.438 6.42183 15.3834 6.47638ZM6.93975 8.80534L4.75998 6.62556C4.66431 6.5299 4.59008 6.41717 4.53729 6.28738C4.4846 6.15768 4.45825 6.02249 4.45825 5.88181V4.92733C4.45825 4.77693 4.50856 4.65147 4.60919 4.55094C4.70972 4.45031 4.83518 4.4 4.98558 4.4H5.94006C6.08074 4.4 6.21593 4.42732 6.34563 4.48196C6.47542 4.5365 6.58815 4.61165 6.68381 4.70742L8.86694 6.89608C8.95366 6.98281 8.99551 7.08338 8.9925 7.19781C8.98949 7.31224 8.94462 7.41282 8.8579 7.49954C8.77117 7.58033 8.66967 7.62219 8.5534 7.62511C8.43712 7.62812 8.33557 7.58626 8.24875 7.49954L6.01867 5.275H5.33325V5.96042L7.56333 8.1905C7.64413 8.27129 7.68544 8.37133 7.68729 8.49063C7.68924 8.60992 7.64792 8.71482 7.56333 8.80534C7.47292 8.89575 7.36899 8.94096 7.25154 8.94096C7.1341 8.94096 7.03017 8.89575 6.93975 8.80534ZM8.39575 12.2313L14.6666 5.96042V5.275H13.9812L7.71033 11.5458L8.39575 12.2313Z" fill="#FDFDFD"/>
</g>
</svg>
