<svg width="24" height="24" viewBox="0 0 24 24" fill="none" xmlns="http://www.w3.org/2000/svg">
<mask id="mask0_111_450" style="mask-type:alpha" maskUnits="userSpaceOnUse" x="0" y="0" width="24" height="24">
<rect width="24" height="24" fill="#D9D9D9"/>
</mask>
<g mask="url(#mask0_111_450)">
<path d="M18.9442 21.148L15.952 18.171L14.2402 19.8827C14.1147 20.0082 13.952 20.071 13.752 20.071C13.552 20.071 13.3891 20.0082 13.2635 19.8827C12.9186 19.5377 12.7462 19.1108 12.7462 18.602C12.7462 18.093 12.9186 17.6661 13.2635 17.3212L17.4212 13.1635C17.766 12.8187 18.193 12.6462 18.702 12.6462C19.2108 12.6462 19.6377 12.8187 19.9827 13.1635C20.1082 13.2892 20.171 13.452 20.171 13.652C20.171 13.852 20.1082 14.0147 19.9827 14.1402L18.271 15.852L21.248 18.8442C21.4288 19.0249 21.5192 19.2358 21.5192 19.477C21.5192 19.718 21.4288 19.9288 21.248 20.1095L20.2095 21.148C20.0288 21.3288 19.818 21.4192 19.577 21.4192C19.3358 21.4192 19.1249 21.3288 18.9442 21.148ZM21.2287 5.95949L10.3037 16.8942L10.7365 17.3115C11.0813 17.6563 11.2537 18.0832 11.2537 18.5922C11.2537 19.1012 11.0813 19.5282 10.7365 19.873C10.6108 19.9987 10.448 20.0615 10.248 20.0615C10.048 20.0615 9.88521 19.9987 9.75971 19.873L8.04796 18.1615L5.05571 21.1385C4.87505 21.3192 4.66413 21.4095 4.42296 21.4095C4.18196 21.4095 3.97113 21.3192 3.79046 21.1385L2.75196 20.1C2.57113 19.9192 2.48071 19.7082 2.48071 19.4672C2.48071 19.2262 2.57113 19.0153 2.75196 18.8345L5.72896 15.8422L4.01721 14.1307C3.89171 14.0051 3.82896 13.8422 3.82896 13.6422C3.82896 13.4422 3.89171 13.2794 4.01721 13.1537C4.36221 12.8089 4.78913 12.6365 5.29796 12.6365C5.80696 12.6365 6.23388 12.8089 6.57871 13.1537L7.00571 13.5962L17.6847 2.92699C17.8487 2.76283 18.042 2.63399 18.2645 2.54049C18.4868 2.44683 18.7185 2.39999 18.9597 2.39999H20.596C20.8538 2.39999 21.0689 2.48624 21.2412 2.65874C21.4137 2.83108 21.5 3.04616 21.5 3.30399V5.31149C21.5 5.43199 21.4781 5.54674 21.4345 5.65574C21.391 5.76474 21.3224 5.86599 21.2287 5.95949ZM6.75396 9.95199L3.01721 6.21524C2.85321 6.05124 2.72596 5.85799 2.63546 5.63549C2.54513 5.41316 2.49996 5.18141 2.49996 4.94024V3.30399C2.49996 3.04616 2.58621 2.83108 2.75871 2.65874C2.93105 2.48624 3.14613 2.39999 3.40396 2.39999H5.04021C5.28138 2.39999 5.51313 2.44683 5.73546 2.54049C5.95796 2.63399 6.15121 2.76283 6.31521 2.92699L10.0577 6.67899C10.2064 6.82766 10.2781 7.00008 10.273 7.19624C10.2678 7.39241 10.1909 7.56483 10.0422 7.71349C9.89355 7.85199 9.71955 7.92374 9.52021 7.92874C9.32088 7.93391 9.1468 7.86216 8.99796 7.71349L5.17496 3.89999H3.99996V5.07499L7.82296 8.89799C7.96146 9.03649 8.0323 9.20799 8.03546 9.41249C8.0388 9.61699 7.96796 9.79683 7.82296 9.95199C7.66796 10.107 7.4898 10.1845 7.28846 10.1845C7.08713 10.1845 6.90896 10.107 6.75396 9.95199ZM9.24996 15.825L20 5.07499V3.89999H18.825L8.07496 14.65L9.24996 15.825Z" fill="currentColor"/>
</g>
</svg>
